<?xml version="1.0" encoding="UTF-8"?> <!-- Generator: Adobe Illustrator 24.0.1, SVG Export Plug-In . SVG Version: 6.00 Build 0) --> <svg xmlns="http://www.w3.org/2000/svg" xmlns:xlink="http://www.w3.org/1999/xlink" version="1.1" x="0px" y="0px" viewBox="0 0 835.1 171" style="enable-background:new 0 0 835.1 171;" xml:space="preserve"> <style type="text/css"> .st0{opacity:0;fill:#FFFFFF;} .st1{fill:#424242;stroke:#424242;stroke-miterlimit:10;} .st2{fill:#FF7100;} .st3{fill:#424242;} .st4{fill:#333333;} </style> <g id="Layer_2"> <rect y="0" class="st0" width="835.1" height="171"></rect> </g> <g id="Layer_1"> <title>logo_text_05</title> <polygon class="st1" points="41.2,128.9 2.8,138.5 16.3,108.9 "></polygon> <polygon class="st2" points="213.6,20.4 170.3,69.5 256.9,69.5 "></polygon> <path class="st3" d="M97.1,67H97c0,0.2,0,0.3,0,0.5C97,83.8,83.8,97,67.5,97S38,83.9,38,67.6C38,51.3,51.2,38,67.4,38 c6.1,0,12.1,1.9,17.1,5.4c3.7-12.3,10.2-23.6,19-33C72-9.5,30.3,0,10.4,31.5S0,104.7,31.5,124.6s73.2,10.4,93.1-21.1 c6.8-10.8,10.4-23.3,10.4-36c0-18.3-6.7-34.8-18.5-47C104.9,32.6,97.2,48.9,97.1,67z"></path> <path class="st2" d="M213.6,21.2L188.2,50c9.7,13.1,6.9,31.6-6.2,41.2c-10.3,7.6-24.4,7.7-34.8,0.2c-3.7,12.3-10.3,23.6-19.1,33 c31.4,20.1,73.1,11,93.2-20.4C238.1,77.9,234.9,43.8,213.6,21.2L213.6,21.2z"></path> <path class="st3" d="M135,68c0-0.2,0-0.3,0-0.5c0-16.3,13.2-29.5,29.5-29.5c3.7,0,7.5,0.7,10.9,2.1l25.8-29.2 C170-9.4,128.2-0.5,107.9,30.7c-17,26.2-13.8,60.7,7.8,83.4C127.8,101.8,134.7,85.3,135,68L135,68z"></path> <path class="st4" d="M365.6,36.2h-28.7v80.7h-17.7V36.2h-28.7V21.6h75.2V36.2z"></path> <path class="st4" d="M359.4,58.7c7.6-7.1,17.7-10.9,28.1-10.7c3.6,0,7.2,0.6,10.6,2c3,1.2,5.7,3.1,7.9,5.4c2.2,2.4,3.9,5.2,4.9,8.3 c1.2,3.4,1.7,7,1.7,10.5V117h-7.4c-1.2,0.1-2.4-0.2-3.6-0.7c-1-0.7-1.7-1.7-2-2.8l-1.5-4.9c-1.6,1.4-3.3,2.8-5,4 c-1.6,1.2-3.3,2.1-5.1,2.9c-1.8,0.8-3.7,1.4-5.6,1.8c-2.2,0.4-4.4,0.6-6.6,0.6c-2.7,0-5.3-0.4-7.9-1.2c-2.3-0.7-4.4-1.9-6.3-3.5 c-1.8-1.6-3.2-3.5-4.1-5.7c-1-2.5-1.5-5.3-1.5-8c0-1.7,0.3-3.5,0.8-5.1c0.6-1.8,1.6-3.4,2.8-4.8c1.5-1.7,3.1-3.1,5-4.3 c2.4-1.5,5-2.7,7.7-3.6c3.4-1.1,6.9-1.9,10.5-2.5c4.5-0.7,9.1-1.1,13.7-1.2v-4c0-4.5-1-7.9-2.9-10s-4.7-3.3-8.3-3.3 c-2.2-0.1-4.4,0.3-6.6,0.9c-1.6,0.5-3.1,1.2-4.6,2.1l-3.6,2.1c-1.1,0.6-2.3,0.9-3.6,0.9c-1,0-2.1-0.3-2.9-0.9 c-0.8-0.6-1.4-1.3-1.9-2.1L359.4,58.7z M396.7,88.1c-4,0.1-7.9,0.5-11.9,1.2c-2.7,0.4-5.2,1.2-7.7,2.3c-1.6,0.7-3.1,1.8-4.2,3.2 c-0.8,1.2-1.3,2.6-1.2,4c0,2.8,0.8,4.9,2.5,6.1c2,1.3,4.3,1.9,6.6,1.8c3,0.1,6-0.5,8.7-1.8c2.7-1.4,5.1-3.3,7.2-5.5L396.7,88.1z"></path> <path class="st4" d="M444.4,19v97.9h-16.3V19H444.4z"></path> <path class="st4" d="M476.9,19v56.1h3c0.9,0,1.8-0.1,2.6-0.4c0.8-0.4,1.5-1,2-1.8l16.8-20.8c0.6-0.9,1.4-1.6,2.3-2.1 c1-0.5,2.2-0.8,3.3-0.7h14.9l-21,25.1c-1.3,1.8-3,3.4-4.9,4.5c0.9,0.7,1.8,1.4,2.5,2.3c0.7,0.9,1.4,1.8,2,2.8l22.5,32.8h-14.7 c-1.1,0-2.3-0.2-3.3-0.6c-1-0.5-1.8-1.3-2.3-2.3l-17.2-25.6c-0.4-0.8-1.1-1.5-1.9-2c-1-0.4-2-0.5-3-0.5h-3.7v31h-16.2V19H476.9z"></path> <path class="st4" d="M546.5,61.1c1.8-3.7,4.4-6.9,7.5-9.5c2.9-2.3,6.6-3.5,10.3-3.5c2.7-0.1,5.3,0.6,7.5,2l-1,12.2 c-0.1,0.7-0.5,1.2-1,1.7c-0.5,0.4-1.1,0.5-1.7,0.5c-1,0-2-0.1-2.9-0.3c-1.3-0.2-2.5-0.3-3.8-0.3c-1.6,0-3.3,0.2-4.8,0.8 c-1.4,0.5-2.7,1.3-3.8,2.3c-1.2,1-2.2,2.2-3,3.6c-0.9,1.5-1.7,3.1-2.4,4.8v41.7h-16.3V49.3h9.6c2.1-0.5,4.2,0.8,4.7,3 c0.1,0.4,0.1,0.7,0.1,1.1L546.5,61.1z"></path> <path class="st4" d="M608.3,48.3c4.7-0.1,9.3,0.8,13.7,2.4c4,1.5,7.6,3.9,10.6,6.9c3,3.1,5.3,6.9,6.8,10.9c3.2,9.4,3.2,19.5,0,28.9 c-1.5,4.1-3.8,7.9-6.8,11c-3,3.1-6.6,5.5-10.5,7c-4.4,1.7-9,2.5-13.7,2.4c-4.7,0.1-9.4-0.8-13.8-2.4c-4-1.5-7.6-3.9-10.6-7 c-3-3.2-5.3-6.9-6.8-11c-3.2-9.4-3.2-19.6,0-28.9c1.5-4.1,3.8-7.8,6.8-10.9c3-3,6.6-5.4,10.6-6.9C598.9,49,603.6,48.2,608.3,48.3z M608.3,105.4c5.6,0,9.8-1.9,12.5-5.7c2.7-3.8,4-9.3,4-16.6c0-7.3-1.3-12.8-4-16.7s-6.8-5.7-12.5-5.7c-5.7,0-9.9,1.9-12.7,5.8 s-4.1,9.4-4.1,16.6c0,7.3,1.4,12.8,4.1,16.6C598.4,103.5,602.6,105.4,608.3,105.4z"></path> <path class="st4" d="M712.3,49.3v67.6h-10c-1.9,0.2-3.7-1.1-4.1-3l-1.1-5.4c-2.7,2.7-5.8,5-9.2,6.8c-3.7,1.8-7.7,2.7-11.8,2.6 c-3.4,0.1-6.7-0.6-9.8-1.9c-2.8-1.2-5.2-3-7.2-5.3c-2-2.4-3.5-5.2-4.4-8.1c-1-3.4-1.5-6.9-1.5-10.4v-43h16.3v43 c0,4.1,1,7.3,2.9,9.6c1.9,2.3,4.8,3.4,8.6,3.4c2.7,0,5.5-0.6,7.9-1.9c2.6-1.3,5-3.1,7-5.2V49.3L712.3,49.3z"></path> <path class="st4" d="M751,118c-5.9,0-10.4-1.7-13.5-5c-3.1-3.3-4.7-7.9-4.7-13.7V61.5h-6.9c-0.8,0-1.6-0.3-2.2-0.9 c-0.7-0.7-1-1.6-0.9-2.6v-6.5l10.9-1.8l3.4-18.5c0.2-0.8,0.6-1.5,1.2-2c0.7-0.5,1.5-0.8,2.4-0.7h8.4v21.2h18.1v11.6H749v36.6 c-0.1,1.8,0.4,3.5,1.5,4.9c1.1,1.2,2.6,1.9,4.2,1.8c0.9,0,1.7-0.1,2.5-0.4c0.6-0.2,1.2-0.5,1.8-0.8c0.5-0.3,1-0.5,1.3-0.8 c0.4-0.2,0.8-0.4,1.2-0.4c0.4,0,0.8,0.1,1.2,0.4c0.4,0.3,0.7,0.7,1,1.1l4.9,7.9c-2.4,2-5.2,3.6-8.2,4.5 C757.4,117.5,754.2,118,751,118z"></path> <path class="st4" d="M789.4,85.2c0.2,3.1,0.8,6.1,1.8,9c0.8,2.3,2.1,4.5,3.8,6.3c1.6,1.6,3.5,2.9,5.6,3.7c2.3,0.8,4.8,1.3,7.2,1.2 c2.3,0,4.6-0.3,6.8-0.9c1.7-0.5,3.4-1.2,5-2c1.4-0.8,2.7-1.4,3.8-2c0.9-0.6,2-0.9,3.1-0.9c1.2-0.1,2.3,0.5,3,1.5l4.7,5.9 c-1.7,2.1-3.8,3.8-6.1,5.3c-2.2,1.4-4.5,2.6-7,3.4c-2.4,0.9-4.9,1.5-7.4,1.8c-2.4,0.3-4.9,0.5-7.3,0.5c-4.5,0-8.9-0.8-13.1-2.3 c-4-1.5-7.6-3.9-10.6-6.9c-3.1-3.3-5.5-7.1-7-11.3c-1.8-5-2.7-10.3-2.6-15.7c0-4.4,0.7-8.8,2.2-13c1.4-3.9,3.6-7.5,6.4-10.6 c2.9-3.1,6.3-5.5,10.2-7.2c4.3-1.8,8.9-2.7,13.6-2.6c4-0.1,8,0.6,11.8,2c3.5,1.3,6.7,3.4,9.3,6c2.7,2.8,4.8,6,6.1,9.6 c1.5,4.2,2.3,8.6,2.2,13c0,2.5-0.3,4.1-0.8,5c-0.7,0.9-1.8,1.4-3,1.3L789.4,85.2z M820.4,75.4c0-2-0.3-4.1-0.9-6 c-0.6-1.8-1.5-3.5-2.7-4.9c-1.2-1.4-2.8-2.6-4.5-3.3c-2-0.9-4.2-1.3-6.4-1.2c-4.7,0-8.4,1.3-11.1,4c-2.7,2.7-4.5,6.5-5.2,11.4 L820.4,75.4z"></path> </g> </svg> 